<svg viewBox="0 0 240 240" xmlns="http://www.w3.org/2000/svg">
  <circle cx="120" cy="120" r="116" fill="#0d1117" stroke="#ffffff" stroke-width="6"/>
  <!-- body -->
  <path d="M60 235 Q60 165 120 160 Q180 165 180 235 Z" fill="#ffb703"/>
  
  <!-- neck -->
  <rect x="104" y="140" width="32" height="24" rx="8" fill="#f0c9a0"/>
  <!-- head -->
  <circle cx="120" cy="108" r="58" fill="#f0c9a0"/>
  <!-- hair -->
  <path d="M62 100 Q58 40 120 34 Q182 40 178 100 Q178 60 150 52 Q160 78 140 66 Q142 86 118 68 Q112 90 96 70 Q92 92 74 78 Q70 92 62 100 Z" fill="#241f2b"/>
  <!-- glasses -->
  <circle cx="98" cy="112" r="20" fill="none" stroke="#1a1a1a" stroke-width="4"/>
  <circle cx="142" cy="112" r="20" fill="none" stroke="#1a1a1a" stroke-width="4"/>
  <line x1="118" y1="110" x2="122" y2="110" stroke="#1a1a1a" stroke-width="4"/>
  <path d="M88 100 L108 106" stroke="#1a1a1a" stroke-width="4" stroke-linecap="round"/><path d="M152 100 L132 106" stroke="#1a1a1a" stroke-width="4" stroke-linecap="round"/><circle cx="98" cy="112" r="3.5" fill="#1a1a1a"/><circle cx="142" cy="112" r="3.5" fill="#1a1a1a"/><path d="M106 134 L134 134" stroke="#1a1a1a" stroke-width="4" stroke-linecap="round"/>
  <path d="M148 92 q6 -4 4 -12" fill="none" stroke="#7ec8ff" stroke-width="3" stroke-linecap="round"/>
</svg>