<svg viewBox="0 0 240 240" xmlns="http://www.w3.org/2000/svg">
  <circle cx="120" cy="120" r="116" fill="#0d1117" stroke="#ffffff" stroke-width="6"/>
  <!-- body -->
  <path d="M60 235 Q60 165 120 160 Q180 165 180 235 Z" fill="#ff3d7f"/>
  
  <!-- neck -->
  <rect x="104" y="140" width="32" height="24" rx="8" fill="#f0c9a0"/>
  <!-- head -->
  <circle cx="120" cy="108" r="58" fill="#f0c9a0"/>
  <!-- hair -->
  <path d="M62 100 Q58 40 120 34 Q182 40 178 100 Q178 60 150 52 Q160 78 140 66 Q142 86 118 68 Q112 90 96 70 Q92 92 74 78 Q70 92 62 100 Z" fill="#241f2b"/>
  <!-- glasses -->
  <circle cx="98" cy="112" r="20" fill="none" stroke="#1a1a1a" stroke-width="4"/>
  <circle cx="142" cy="112" r="20" fill="none" stroke="#1a1a1a" stroke-width="4"/>
  <line x1="118" y1="110" x2="122" y2="110" stroke="#1a1a1a" stroke-width="4"/>
  <path d="M98 100 l3 8 8 3 -8 3 -3 8 -3 -8 -8 -3 8 -3 z" fill="#1a1a1a"/><path d="M142 100 l3 8 8 3 -8 3 -3 8 -3 -8 -8 -3 8 -3 z" fill="#1a1a1a"/><path d="M102 128 Q120 150 138 128" fill="none" stroke="#1a1a1a" stroke-width="4" stroke-linecap="round"/>
  <path d="M40 60 l4 10 10 4 -10 4 -4 10 -4 -10 -10 -4 10 -4 z" fill="#ffb703"/><path d="M205 75 l3 8 8 3 -8 3 -3 8 -3 -8 -8 -3 8 -3 z" fill="#35e6e0"/><path d="M195 150 l3 7 7 3 -7 3 -3 7 -3 -7 -7 -3 7 -3 z" fill="#ff3d7f"/>
</svg>